<svg width="285" height="71" viewBox="0 0 285 71" fill="none" xmlns="http://www.w3.org/2000/svg">
<path fill-rule="evenodd" clip-rule="evenodd" d="M21 21H19V50H21H25H42V44H25V39H42V33H25V27H42V21H25H21ZM72 33H66V50H72V33ZM97 21H103H115V27H103V50H97V27V21ZM115 27H121V50H115V27ZM137 44V27V21H143H154H160V27V44V50H154H143H137V44ZM154 27V44H143V27H154ZM214 21H220V50H214V21ZM175 27V44V50H181H193V44H198V27H193V21H181H175V27ZM192 44V27H181V44H192ZM255 44V27H260V50H266V27H261V21H243V27H237V50H243V27H249V44H255ZM81 21V27H57V21H81Z" fill="black"/>
<rect x="137" y="21" width="23" height="29" fill="#DA1F39"/>
<path d="M154.75 26.25C155.579 26.25 156.374 26.5792 156.96 27.1653C157.546 27.7513 157.875 28.5462 157.875 29.375V30H151.625V29.375C151.625 28.5462 151.954 27.7513 152.54 27.1653C153.126 26.5792 153.921 26.25 154.75 26.25ZM159.125 30V29.375C159.125 28.2147 158.664 27.1019 157.844 26.2814C157.023 25.4609 155.91 25 154.75 25C153.59 25 152.477 25.4609 151.656 26.2814C150.836 27.1019 150.375 28.2147 150.375 29.375V30H146V42.5C146 43.163 146.263 43.7989 146.732 44.2678C147.201 44.7366 147.837 45 148.5 45H161C161.663 45 162.299 44.7366 162.768 44.2678C163.237 43.7989 163.5 43.163 163.5 42.5V30H159.125ZM147.25 31.25H162.25V42.5C162.25 42.8315 162.118 43.1495 161.884 43.3839C161.649 43.6183 161.332 43.75 161 43.75H148.5C148.168 43.75 147.851 43.6183 147.616 43.3839C147.382 43.1495 147.25 42.8315 147.25 42.5V31.25Z" fill="white"/>
<rect x="147" y="31" width="16" height="13" fill="white"/>
</svg>
