<svg width="285" height="71" viewBox="0 0 285 71" fill="none" xmlns="http://www.w3.org/2000/svg">
<path fill-rule="evenodd" clip-rule="evenodd" d="M21 21H19V50H21H25H42V44H25V39H42V33H25V27H42V21H25H21ZM72 33H66V50H72V33ZM97 21H103H115V27H103V50H97V27V21ZM115 27H121V50H115V27ZM137 44V27V21H143H154H160V27V44V50H154H143H137V44ZM154 27V44H143V27H154ZM214 21H220V50H214V21ZM175 27V44V50H181H193V44H198V27H193V21H181H175V27ZM192 44V27H181V44H192ZM255 44V27H260V50H266V27H261V21H243V27H237V50H243V27H249V44H255ZM81 21V27H57V21H81Z" fill="black"/>
</svg>
